<mxfile host="app.diagrams.net" modified="2020-12-16T13:21:22.072Z" agent="5.0 (Windows NT 10.0; Win64; x64) AppleWebKit/537.36 (KHTML, like Gecko) Chrome/87.0.4280.88 Safari/537.36" etag="oCQyBSYm5-wGRoaMNRfA" version="14.0.3" type="github" pages="6">
  <diagram id="v-KltTDvjvUkR__w3oYI" name="Prod">
    <mxGraphModel dx="1422" dy="800" grid="1" gridSize="10" guides="1" tooltips="1" connect="1" arrows="1" fold="1" page="1" pageScale="1" pageWidth="827" pageHeight="1169" background="#DAD2D8" math="0" shadow="0">
      <root>
        <mxCell id="0" />
        <mxCell id="1" parent="0" />
        <mxCell id="Exw2tU36U783nXJ3FbY_-59" value="" style="rounded=0;whiteSpace=wrap;html=1;sketch=0;strokeColor=#0F8B8D;fillColor=#FAE5C7;fontColor=#143642;" parent="1" vertex="1">
          <mxGeometry x="20" y="60" width="810" height="410" as="geometry" />
        </mxCell>
        <mxCell id="Exw2tU36U783nXJ3FbY_-1" value="" style="whiteSpace=wrap;html=1;aspect=fixed;fillColor=#FAE5C7;strokeColor=#0F8B8D;fontColor=#143642;" parent="1" vertex="1">
          <mxGeometry x="70" y="120" width="210" height="210" as="geometry" />
        </mxCell>
        <mxCell id="Exw2tU36U783nXJ3FbY_-2" value="" style="whiteSpace=wrap;html=1;aspect=fixed;fillColor=#FAE5C7;strokeColor=#0F8B8D;fontColor=#143642;" parent="1" vertex="1">
          <mxGeometry x="80" y="130" width="190" height="190" as="geometry" />
        </mxCell>
        <mxCell id="Exw2tU36U783nXJ3FbY_-10" value="" style="whiteSpace=wrap;html=1;aspect=fixed;fillColor=#FAE5C7;strokeColor=#0F8B8D;fontColor=#143642;" parent="1" vertex="1">
          <mxGeometry x="340" y="120" width="210" height="210" as="geometry" />
        </mxCell>
        <mxCell id="Exw2tU36U783nXJ3FbY_-11" value="" style="whiteSpace=wrap;html=1;aspect=fixed;fillColor=#FAE5C7;strokeColor=#0F8B8D;fontColor=#143642;" parent="1" vertex="1">
          <mxGeometry x="350" y="130" width="190" height="190" as="geometry" />
        </mxCell>
        <mxCell id="Exw2tU36U783nXJ3FbY_-12" value="" style="whiteSpace=wrap;html=1;aspect=fixed;fillColor=#FAE5C7;strokeColor=#0F8B8D;fontColor=#143642;" parent="1" vertex="1">
          <mxGeometry x="590" y="120" width="210" height="210" as="geometry" />
        </mxCell>
        <mxCell id="Exw2tU36U783nXJ3FbY_-13" value="" style="whiteSpace=wrap;html=1;aspect=fixed;fillColor=#FAE5C7;strokeColor=#0F8B8D;fontColor=#143642;" parent="1" vertex="1">
          <mxGeometry x="600" y="130" width="190" height="190" as="geometry" />
        </mxCell>
        <mxCell id="Exw2tU36U783nXJ3FbY_-15" value="cluster Bytes" style="text;strokeColor=none;fillColor=none;html=1;fontSize=24;fontStyle=1;verticalAlign=middle;align=center;fontColor=#143642;" parent="1" vertex="1">
          <mxGeometry x="340" width="100" height="40" as="geometry" />
        </mxCell>
        <mxCell id="Exw2tU36U783nXJ3FbY_-16" value="A K8s Deno Project Production Ready" style="text;html=1;strokeColor=none;fillColor=none;align=center;verticalAlign=middle;whiteSpace=wrap;rounded=0;fontColor=#143642;" parent="1" vertex="1">
          <mxGeometry x="267" y="40" width="246" height="20" as="geometry" />
        </mxCell>
        <mxCell id="Exw2tU36U783nXJ3FbY_-17" value="DB" style="shape=cylinder3;whiteSpace=wrap;html=1;boundedLbl=1;backgroundOutline=1;size=15;fillColor=#FAE5C7;strokeColor=#0F8B8D;fontColor=#143642;" parent="1" vertex="1">
          <mxGeometry x="145" y="200" width="60" height="80" as="geometry" />
        </mxCell>
        <mxCell id="Exw2tU36U783nXJ3FbY_-18" value="LOGS File" style="rounded=1;whiteSpace=wrap;html=1;fillColor=#FAE5C7;strokeColor=#0F8B8D;fontColor=#143642;" parent="1" vertex="1">
          <mxGeometry x="145" y="280" width="120" height="40" as="geometry" />
        </mxCell>
        <mxCell id="Exw2tU36U783nXJ3FbY_-29" style="edgeStyle=orthogonalEdgeStyle;rounded=0;orthogonalLoop=1;jettySize=auto;html=1;exitX=1;exitY=0.5;exitDx=0;exitDy=0;entryX=0;entryY=0.5;entryDx=0;entryDy=0;labelBackgroundColor=#DAD2D8;strokeColor=#A8201A;fontColor=#143642;" parent="1" source="Exw2tU36U783nXJ3FbY_-19" target="Exw2tU36U783nXJ3FbY_-18" edge="1">
          <mxGeometry relative="1" as="geometry" />
        </mxCell>
        <mxCell id="Exw2tU36U783nXJ3FbY_-42" style="edgeStyle=orthogonalEdgeStyle;rounded=0;orthogonalLoop=1;jettySize=auto;html=1;exitX=0;exitY=0.5;exitDx=0;exitDy=0;entryX=-0.001;entryY=0.398;entryDx=0;entryDy=0;entryPerimeter=0;labelBackgroundColor=#DAD2D8;strokeColor=#A8201A;fontColor=#143642;" parent="1" source="Exw2tU36U783nXJ3FbY_-19" target="Exw2tU36U783nXJ3FbY_-22" edge="1">
          <mxGeometry relative="1" as="geometry" />
        </mxCell>
        <mxCell id="Exw2tU36U783nXJ3FbY_-19" value="Elastic" style="rhombus;whiteSpace=wrap;html=1;fillColor=#FAE5C7;strokeColor=#0F8B8D;fontColor=#143642;" parent="1" vertex="1">
          <mxGeometry x="80" y="280" width="55" height="40" as="geometry" />
        </mxCell>
        <mxCell id="Exw2tU36U783nXJ3FbY_-20" value="DB Manager" style="rounded=1;whiteSpace=wrap;html=1;fillColor=#FAE5C7;strokeColor=#0F8B8D;fontColor=#143642;" parent="1" vertex="1">
          <mxGeometry x="110" y="140" width="120" height="30" as="geometry" />
        </mxCell>
        <mxCell id="Exw2tU36U783nXJ3FbY_-21" value="Backup Manager" style="rounded=1;whiteSpace=wrap;html=1;fillColor=#FAE5C7;strokeColor=#0F8B8D;fontColor=#143642;" parent="1" vertex="1">
          <mxGeometry x="110" y="170" width="120" height="30" as="geometry" />
        </mxCell>
        <mxCell id="Exw2tU36U783nXJ3FbY_-22" value="Kafka Server as a Single Point of Truth" style="rounded=0;whiteSpace=wrap;html=1;fillColor=#FAE5C7;strokeColor=#0F8B8D;fontColor=#143642;" parent="1" vertex="1">
          <mxGeometry x="70" y="70" width="730" height="40" as="geometry" />
        </mxCell>
        <mxCell id="Exw2tU36U783nXJ3FbY_-23" value="Deno API" style="rounded=0;whiteSpace=wrap;html=1;fillColor=#FAE5C7;strokeColor=#0F8B8D;fontColor=#143642;" parent="1" vertex="1">
          <mxGeometry x="385" y="170" width="120" height="70" as="geometry" />
        </mxCell>
        <mxCell id="Exw2tU36U783nXJ3FbY_-24" value="LOGS File" style="rounded=1;whiteSpace=wrap;html=1;fillColor=#FAE5C7;strokeColor=#0F8B8D;fontColor=#143642;" parent="1" vertex="1">
          <mxGeometry x="417.5" y="280" width="120" height="40" as="geometry" />
        </mxCell>
        <mxCell id="Exw2tU36U783nXJ3FbY_-28" style="edgeStyle=orthogonalEdgeStyle;rounded=0;orthogonalLoop=1;jettySize=auto;html=1;exitX=1;exitY=0.5;exitDx=0;exitDy=0;entryX=0;entryY=0.5;entryDx=0;entryDy=0;labelBackgroundColor=#DAD2D8;strokeColor=#A8201A;fontColor=#143642;" parent="1" source="Exw2tU36U783nXJ3FbY_-25" target="Exw2tU36U783nXJ3FbY_-24" edge="1">
          <mxGeometry relative="1" as="geometry" />
        </mxCell>
        <mxCell id="Exw2tU36U783nXJ3FbY_-43" style="edgeStyle=orthogonalEdgeStyle;rounded=0;orthogonalLoop=1;jettySize=auto;html=1;exitX=0;exitY=0.5;exitDx=0;exitDy=0;labelBackgroundColor=#DAD2D8;strokeColor=#A8201A;fontColor=#143642;" parent="1" source="Exw2tU36U783nXJ3FbY_-25" edge="1">
          <mxGeometry relative="1" as="geometry">
            <mxPoint x="333" y="110" as="targetPoint" />
            <Array as="points">
              <mxPoint x="333" y="300" />
              <mxPoint x="333" y="110" />
            </Array>
          </mxGeometry>
        </mxCell>
        <mxCell id="Exw2tU36U783nXJ3FbY_-25" value="Elastic" style="rhombus;whiteSpace=wrap;html=1;fillColor=#FAE5C7;strokeColor=#0F8B8D;fontColor=#143642;" parent="1" vertex="1">
          <mxGeometry x="352.5" y="280" width="55" height="40" as="geometry" />
        </mxCell>
        <mxCell id="Exw2tU36U783nXJ3FbY_-26" value="LOGS File" style="rounded=1;whiteSpace=wrap;html=1;fillColor=#FAE5C7;strokeColor=#0F8B8D;fontColor=#143642;" parent="1" vertex="1">
          <mxGeometry x="667.5" y="280" width="120" height="40" as="geometry" />
        </mxCell>
        <mxCell id="Exw2tU36U783nXJ3FbY_-32" style="edgeStyle=orthogonalEdgeStyle;rounded=0;orthogonalLoop=1;jettySize=auto;html=1;exitX=1;exitY=0.5;exitDx=0;exitDy=0;labelBackgroundColor=#DAD2D8;strokeColor=#A8201A;fontColor=#143642;" parent="1" source="Exw2tU36U783nXJ3FbY_-27" edge="1">
          <mxGeometry relative="1" as="geometry">
            <mxPoint x="668" y="300" as="targetPoint" />
          </mxGeometry>
        </mxCell>
        <mxCell id="Exw2tU36U783nXJ3FbY_-27" value="Elastic" style="rhombus;whiteSpace=wrap;html=1;fillColor=#FAE5C7;strokeColor=#0F8B8D;fontColor=#143642;" parent="1" vertex="1">
          <mxGeometry x="602.5" y="280" width="57.5" height="40" as="geometry" />
        </mxCell>
        <mxCell id="Exw2tU36U783nXJ3FbY_-33" value="Worker" style="shape=hexagon;perimeter=hexagonPerimeter2;whiteSpace=wrap;html=1;fixedSize=1;fillColor=#FAE5C7;strokeColor=#0F8B8D;fontColor=#143642;" parent="1" vertex="1">
          <mxGeometry x="602.5" y="130" width="120" height="30" as="geometry" />
        </mxCell>
        <mxCell id="Exw2tU36U783nXJ3FbY_-34" value="&lt;span&gt;Worker&lt;/span&gt;" style="shape=hexagon;perimeter=hexagonPerimeter2;whiteSpace=wrap;html=1;fixedSize=1;fillColor=#FAE5C7;strokeColor=#0F8B8D;fontColor=#143642;" parent="1" vertex="1">
          <mxGeometry x="602.5" y="160" width="120" height="30" as="geometry" />
        </mxCell>
        <mxCell id="Exw2tU36U783nXJ3FbY_-35" value="&lt;span&gt;Worker&lt;/span&gt;" style="shape=hexagon;perimeter=hexagonPerimeter2;whiteSpace=wrap;html=1;fixedSize=1;fillColor=#FAE5C7;strokeColor=#0F8B8D;fontColor=#143642;" parent="1" vertex="1">
          <mxGeometry x="602.5" y="190" width="120" height="30" as="geometry" />
        </mxCell>
        <mxCell id="Exw2tU36U783nXJ3FbY_-36" value="&lt;span&gt;Worker&lt;/span&gt;" style="shape=hexagon;perimeter=hexagonPerimeter2;whiteSpace=wrap;html=1;fixedSize=1;fillColor=#FAE5C7;strokeColor=#0F8B8D;fontColor=#143642;" parent="1" vertex="1">
          <mxGeometry x="602.5" y="220" width="120" height="30" as="geometry" />
        </mxCell>
        <mxCell id="Exw2tU36U783nXJ3FbY_-37" value="API Gateway" style="rounded=0;whiteSpace=wrap;html=1;fillColor=#FAE5C7;strokeColor=#0F8B8D;fontColor=#143642;" parent="1" vertex="1">
          <mxGeometry x="70" y="340" width="730" height="60" as="geometry" />
        </mxCell>
        <mxCell id="Exw2tU36U783nXJ3FbY_-38" value="Pod" style="text;html=1;strokeColor=none;fillColor=none;align=center;verticalAlign=middle;whiteSpace=wrap;rounded=0;fontColor=#143642;" parent="1" vertex="1">
          <mxGeometry x="70" y="120" width="40" height="10" as="geometry" />
        </mxCell>
        <mxCell id="Exw2tU36U783nXJ3FbY_-39" value="Pod" style="text;html=1;strokeColor=none;fillColor=none;align=center;verticalAlign=middle;whiteSpace=wrap;rounded=0;fontColor=#143642;" parent="1" vertex="1">
          <mxGeometry x="340" y="120" width="40" height="10" as="geometry" />
        </mxCell>
        <mxCell id="Exw2tU36U783nXJ3FbY_-40" value="Pod" style="text;html=1;strokeColor=none;fillColor=none;align=center;verticalAlign=middle;whiteSpace=wrap;rounded=0;fontColor=#143642;" parent="1" vertex="1">
          <mxGeometry x="590" y="120" width="40" height="10" as="geometry" />
        </mxCell>
        <mxCell id="Exw2tU36U783nXJ3FbY_-41" value="Pod" style="text;html=1;strokeColor=none;fillColor=none;align=center;verticalAlign=middle;whiteSpace=wrap;rounded=0;fontColor=#143642;" parent="1" vertex="1">
          <mxGeometry x="70" y="340" width="40" height="10" as="geometry" />
        </mxCell>
        <mxCell id="Exw2tU36U783nXJ3FbY_-45" style="edgeStyle=orthogonalEdgeStyle;rounded=0;orthogonalLoop=1;jettySize=auto;html=1;exitX=0;exitY=0.5;exitDx=0;exitDy=0;labelBackgroundColor=#DAD2D8;strokeColor=#A8201A;fontColor=#143642;" parent="1" edge="1">
          <mxGeometry relative="1" as="geometry">
            <mxPoint x="602.5" y="299.9999999999999" as="sourcePoint" />
            <mxPoint x="583" y="110" as="targetPoint" />
            <Array as="points">
              <mxPoint x="583" y="300" />
              <mxPoint x="583" y="110" />
            </Array>
          </mxGeometry>
        </mxCell>
        <mxCell id="Exw2tU36U783nXJ3FbY_-50" style="edgeStyle=orthogonalEdgeStyle;rounded=0;orthogonalLoop=1;jettySize=auto;html=1;exitX=1;exitY=0.5;exitDx=0;exitDy=0;entryX=0.329;entryY=0;entryDx=0;entryDy=0;entryPerimeter=0;labelBackgroundColor=#DAD2D8;strokeColor=#A8201A;fontColor=#143642;" parent="1" source="Exw2tU36U783nXJ3FbY_-46" target="Exw2tU36U783nXJ3FbY_-37" edge="1">
          <mxGeometry relative="1" as="geometry" />
        </mxCell>
        <mxCell id="Exw2tU36U783nXJ3FbY_-46" value="Cluster IP Service" style="whiteSpace=wrap;html=1;aspect=fixed;fillColor=#FAE5C7;strokeColor=#0F8B8D;fontColor=#143642;" parent="1" vertex="1">
          <mxGeometry x="220" y="215" width="40" height="40" as="geometry" />
        </mxCell>
        <mxCell id="Exw2tU36U783nXJ3FbY_-51" style="edgeStyle=orthogonalEdgeStyle;rounded=0;orthogonalLoop=1;jettySize=auto;html=1;exitX=0;exitY=0.5;exitDx=0;exitDy=0;labelBackgroundColor=#DAD2D8;strokeColor=#A8201A;fontColor=#143642;" parent="1" source="Exw2tU36U783nXJ3FbY_-48" edge="1">
          <mxGeometry relative="1" as="geometry">
            <mxPoint x="310" y="339.9999999999999" as="targetPoint" />
          </mxGeometry>
        </mxCell>
        <mxCell id="Exw2tU36U783nXJ3FbY_-48" value="Cluster IP Service" style="whiteSpace=wrap;html=1;aspect=fixed;fillColor=#FAE5C7;strokeColor=#0F8B8D;fontColor=#143642;" parent="1" vertex="1">
          <mxGeometry x="352.5" y="185" width="40" height="40" as="geometry" />
        </mxCell>
        <mxCell id="Exw2tU36U783nXJ3FbY_-56" style="edgeStyle=orthogonalEdgeStyle;rounded=0;orthogonalLoop=1;jettySize=auto;html=1;entryX=1;entryY=0.75;entryDx=0;entryDy=0;labelBackgroundColor=#DAD2D8;strokeColor=#A8201A;fontColor=#143642;" parent="1" source="Exw2tU36U783nXJ3FbY_-49" target="Exw2tU36U783nXJ3FbY_-37" edge="1">
          <mxGeometry relative="1" as="geometry" />
        </mxCell>
        <mxCell id="Exw2tU36U783nXJ3FbY_-49" value="Cluster IP Service" style="whiteSpace=wrap;html=1;aspect=fixed;fillColor=#FAE5C7;strokeColor=#0F8B8D;fontColor=#143642;" parent="1" vertex="1">
          <mxGeometry x="740" y="180" width="40" height="40" as="geometry" />
        </mxCell>
        <mxCell id="Exw2tU36U783nXJ3FbY_-57" value="Ingress" style="whiteSpace=wrap;html=1;aspect=fixed;fillColor=#FAE5C7;strokeColor=#0F8B8D;fontColor=#143642;" parent="1" vertex="1">
          <mxGeometry x="200" y="345" width="50" height="50" as="geometry" />
        </mxCell>
        <mxCell id="Exw2tU36U783nXJ3FbY_-58" value="Production Architecture" style="text;html=1;strokeColor=none;fillColor=none;align=center;verticalAlign=middle;whiteSpace=wrap;rounded=0;fontColor=#143642;" parent="1" vertex="1">
          <mxGeometry x="50" y="410" width="750" height="20" as="geometry" />
        </mxCell>
        <mxCell id="Exw2tU36U783nXJ3FbY_-60" value="Deployment" style="text;html=1;strokeColor=none;fillColor=none;align=center;verticalAlign=middle;whiteSpace=wrap;rounded=0;sketch=0;fontColor=#143642;" parent="1" vertex="1">
          <mxGeometry x="40" y="444" width="40" height="20" as="geometry" />
        </mxCell>
        <mxCell id="jGJ_EpVWJMfmlhfytyzm-1" value="&#39;0-0&#39;" style="text;html=1;strokeColor=none;fillColor=none;align=center;verticalAlign=middle;whiteSpace=wrap;rounded=0;" vertex="1" parent="1">
          <mxGeometry x="425" y="140" width="40" height="20" as="geometry" />
        </mxCell>
        <mxCell id="jGJ_EpVWJMfmlhfytyzm-2" value="d-.-b" style="text;html=1;strokeColor=none;fillColor=none;align=center;verticalAlign=middle;whiteSpace=wrap;rounded=0;" vertex="1" parent="1">
          <mxGeometry x="87.5" y="215" width="40" height="20" as="geometry" />
        </mxCell>
        <mxCell id="jGJ_EpVWJMfmlhfytyzm-3" value="¬¬" style="text;html=1;strokeColor=none;fillColor=none;align=center;verticalAlign=middle;whiteSpace=wrap;rounded=0;" vertex="1" parent="1">
          <mxGeometry x="740" y="135" width="40" height="20" as="geometry" />
        </mxCell>
      </root>
    </mxGraphModel>
  </diagram>
  <diagram id="V8EVoEKZBCEyGQbvYRRt" name="Dev">
    <mxGraphModel dx="1422" dy="800" grid="1" gridSize="10" guides="1" tooltips="1" connect="1" arrows="1" fold="1" page="1" pageScale="1" pageWidth="827" pageHeight="1169" background="#114B5F" math="0" shadow="0">
      <root>
        <mxCell id="UG0L7erXDWoxg8Z4IQq_-0" />
        <mxCell id="UG0L7erXDWoxg8Z4IQq_-1" parent="UG0L7erXDWoxg8Z4IQq_-0" />
        <mxCell id="UG0L7erXDWoxg8Z4IQq_-2" value="Development Environment" style="rounded=1;whiteSpace=wrap;html=1;strokeWidth=2;fillWeight=4;hachureGap=8;hachureAngle=45;fillColor=#1ba1e2;sketch=1;fontColor=#E4FDE1;" parent="UG0L7erXDWoxg8Z4IQq_-1" vertex="1">
          <mxGeometry x="210" y="20" width="380" height="70" as="geometry" />
        </mxCell>
        <mxCell id="UG0L7erXDWoxg8Z4IQq_-4" style="edgeStyle=orthogonalEdgeStyle;curved=0;rounded=1;sketch=0;orthogonalLoop=1;jettySize=auto;html=1;strokeColor=#028090;fillColor=#F45B69;fontColor=#E4FDE1;entryX=0.5;entryY=0;entryDx=0;entryDy=0;" parent="UG0L7erXDWoxg8Z4IQq_-1" source="UG0L7erXDWoxg8Z4IQq_-3" target="Lo3zhZ8ldRelNau7hbrU-0" edge="1">
          <mxGeometry relative="1" as="geometry">
            <mxPoint x="400" y="270" as="targetPoint" />
          </mxGeometry>
        </mxCell>
        <mxCell id="UG0L7erXDWoxg8Z4IQq_-3" value="Docker Compose&lt;br&gt;" style="rounded=0;whiteSpace=wrap;html=1;sketch=0;strokeColor=#028090;fillColor=#F45B69;fontColor=#E4FDE1;" parent="UG0L7erXDWoxg8Z4IQq_-1" vertex="1">
          <mxGeometry x="70" y="180" width="130" height="60" as="geometry" />
        </mxCell>
        <mxCell id="UG0L7erXDWoxg8Z4IQq_-5" value="Worker Image" style="rounded=1;whiteSpace=wrap;html=1;sketch=0;strokeColor=#028090;fillColor=#F45B69;fontColor=#E4FDE1;" parent="UG0L7erXDWoxg8Z4IQq_-1" vertex="1">
          <mxGeometry x="354" y="480" width="120" height="60" as="geometry" />
        </mxCell>
        <mxCell id="UG0L7erXDWoxg8Z4IQq_-6" value="API image" style="rounded=1;whiteSpace=wrap;html=1;sketch=0;strokeColor=#028090;fillColor=#F45B69;fontColor=#E4FDE1;" parent="UG0L7erXDWoxg8Z4IQq_-1" vertex="1">
          <mxGeometry x="234" y="480" width="120" height="60" as="geometry" />
        </mxCell>
        <mxCell id="UG0L7erXDWoxg8Z4IQq_-7" value="DB Manager Image" style="rounded=1;whiteSpace=wrap;html=1;sketch=0;strokeColor=#028090;fillColor=#F45B69;fontColor=#E4FDE1;" parent="UG0L7erXDWoxg8Z4IQq_-1" vertex="1">
          <mxGeometry x="594" y="480" width="120" height="60" as="geometry" />
        </mxCell>
        <mxCell id="UG0L7erXDWoxg8Z4IQq_-8" value="DB Image" style="rounded=1;whiteSpace=wrap;html=1;sketch=0;strokeColor=#028090;fillColor=#F45B69;fontColor=#E4FDE1;" parent="UG0L7erXDWoxg8Z4IQq_-1" vertex="1">
          <mxGeometry x="474" y="480" width="120" height="60" as="geometry" />
        </mxCell>
        <mxCell id="YpVrmXncnFtBteCcsxtO-0" value="API Gateway Image" style="rounded=1;whiteSpace=wrap;html=1;sketch=0;strokeColor=#028090;fillColor=#F45B69;fontColor=#E4FDE1;" parent="UG0L7erXDWoxg8Z4IQq_-1" vertex="1">
          <mxGeometry x="114" y="540" width="600" height="60" as="geometry" />
        </mxCell>
        <mxCell id="YpVrmXncnFtBteCcsxtO-1" value="Backup manager Image" style="rounded=1;whiteSpace=wrap;html=1;sketch=0;strokeColor=#028090;fillColor=#F45B69;fontColor=#E4FDE1;" parent="UG0L7erXDWoxg8Z4IQq_-1" vertex="1">
          <mxGeometry x="114" y="480" width="120" height="60" as="geometry" />
        </mxCell>
        <mxCell id="Lo3zhZ8ldRelNau7hbrU-0" value="Kafka Server" style="rounded=1;whiteSpace=wrap;html=1;sketch=0;strokeColor=#028090;fillColor=#F45B69;fontColor=#E4FDE1;" parent="UG0L7erXDWoxg8Z4IQq_-1" vertex="1">
          <mxGeometry x="114" y="360" width="600" height="60" as="geometry" />
        </mxCell>
        <mxCell id="Lo3zhZ8ldRelNau7hbrU-1" value="Elastic Server" style="rounded=1;whiteSpace=wrap;html=1;sketch=0;strokeColor=#028090;fillColor=#F45B69;fontColor=#E4FDE1;" parent="UG0L7erXDWoxg8Z4IQq_-1" vertex="1">
          <mxGeometry x="114" y="420" width="600" height="60" as="geometry" />
        </mxCell>
      </root>
    </mxGraphModel>
  </diagram>
  <diagram id="PR9Jx4X4YsnZBLg0E0rP" name="Page-3">
    <mxGraphModel dx="1422" dy="800" grid="1" gridSize="10" guides="1" tooltips="1" connect="1" arrows="1" fold="1" page="1" pageScale="1" pageWidth="827" pageHeight="1169" background="#283618" math="0" shadow="0">
      <root>
        <mxCell id="fFDTWxJaPPdEW72xetZH-0" />
        <mxCell id="fFDTWxJaPPdEW72xetZH-1" parent="fFDTWxJaPPdEW72xetZH-0" />
        <mxCell id="fFDTWxJaPPdEW72xetZH-2" value="&lt;font color=&quot;#ffffff&quot;&gt;Deno API&lt;/font&gt;" style="text;strokeColor=none;fillColor=none;html=1;fontSize=24;fontStyle=1;verticalAlign=middle;align=center;rounded=0;sketch=0;" vertex="1" parent="fFDTWxJaPPdEW72xetZH-1">
          <mxGeometry x="350" y="20" width="100" height="40" as="geometry" />
        </mxCell>
        <mxCell id="fFDTWxJaPPdEW72xetZH-3" value="Dockerfile&lt;br&gt;" style="text;html=1;align=center;verticalAlign=middle;resizable=0;points=[];autosize=1;fontColor=#FEFAE0;" vertex="1" parent="fFDTWxJaPPdEW72xetZH-1">
          <mxGeometry x="60" y="120" width="70" height="20" as="geometry" />
        </mxCell>
        <mxCell id="fFDTWxJaPPdEW72xetZH-4" value="Main TS File" style="text;html=1;align=center;verticalAlign=middle;resizable=0;points=[];autosize=1;fontColor=#FEFAE0;" vertex="1" parent="fFDTWxJaPPdEW72xetZH-1">
          <mxGeometry x="50" y="100" width="80" height="20" as="geometry" />
        </mxCell>
      </root>
    </mxGraphModel>
  </diagram>
  <diagram id="64xWr3PbrtENuR1pzghS" name="d-.-b">
    <mxGraphModel dx="1422" dy="800" grid="1" gridSize="10" guides="1" tooltips="1" connect="1" arrows="1" fold="1" page="1" pageScale="1" pageWidth="827" pageHeight="1169" math="0" shadow="0">
      <root>
        <mxCell id="XMsLL7kzhM_ZJ7_MW_jl-0" />
        <mxCell id="XMsLL7kzhM_ZJ7_MW_jl-1" parent="XMsLL7kzhM_ZJ7_MW_jl-0" />
        <mxCell id="XMsLL7kzhM_ZJ7_MW_jl-2" value="" style="whiteSpace=wrap;html=1;aspect=fixed;fillColor=#d5e8d4;strokeColor=#82b366;" vertex="1" parent="XMsLL7kzhM_ZJ7_MW_jl-1">
          <mxGeometry x="34" y="20" width="760" height="760" as="geometry" />
        </mxCell>
        <mxCell id="XMsLL7kzhM_ZJ7_MW_jl-3" value="&lt;span style=&quot;font-size: 72px&quot;&gt;d-.-b&lt;/span&gt;" style="text;html=1;strokeColor=none;fillColor=none;align=center;verticalAlign=middle;whiteSpace=wrap;rounded=0;" vertex="1" parent="XMsLL7kzhM_ZJ7_MW_jl-1">
          <mxGeometry x="60" y="40" width="310" height="90" as="geometry" />
        </mxCell>
        <mxCell id="XbJZeihiL8k5ddoW7x8Q-1" style="edgeStyle=orthogonalEdgeStyle;rounded=0;orthogonalLoop=1;jettySize=auto;html=1;exitX=0;exitY=0.5;exitDx=0;exitDy=0;exitPerimeter=0;entryX=0;entryY=0;entryDx=120;entryDy=20;entryPerimeter=0;" edge="1" parent="XMsLL7kzhM_ZJ7_MW_jl-1" source="XMsLL7kzhM_ZJ7_MW_jl-4" target="XbJZeihiL8k5ddoW7x8Q-0">
          <mxGeometry relative="1" as="geometry" />
        </mxCell>
        <mxCell id="XMsLL7kzhM_ZJ7_MW_jl-4" value="MONGO DB" style="shape=cylinder3;whiteSpace=wrap;html=1;boundedLbl=1;backgroundOutline=1;size=15;" vertex="1" parent="XMsLL7kzhM_ZJ7_MW_jl-1">
          <mxGeometry x="480" y="100" width="220" height="180" as="geometry" />
        </mxCell>
        <mxCell id="XMsLL7kzhM_ZJ7_MW_jl-5" value="mongo-express" style="shape=cylinder3;whiteSpace=wrap;html=1;boundedLbl=1;backgroundOutline=1;size=15;" vertex="1" parent="XMsLL7kzhM_ZJ7_MW_jl-1">
          <mxGeometry x="480" y="250" width="220" height="80" as="geometry" />
        </mxCell>
        <mxCell id="XbJZeihiL8k5ddoW7x8Q-2" style="edgeStyle=orthogonalEdgeStyle;rounded=0;orthogonalLoop=1;jettySize=auto;html=1;exitX=0;exitY=0.5;exitDx=0;exitDy=0;" edge="1" parent="XMsLL7kzhM_ZJ7_MW_jl-1" source="XMsLL7kzhM_ZJ7_MW_jl-6" target="XbJZeihiL8k5ddoW7x8Q-0">
          <mxGeometry relative="1" as="geometry">
            <Array as="points">
              <mxPoint x="390" y="410" />
              <mxPoint x="390" y="480" />
            </Array>
          </mxGeometry>
        </mxCell>
        <mxCell id="XMsLL7kzhM_ZJ7_MW_jl-6" value="Backup Manager" style="shape=hexagon;perimeter=hexagonPerimeter2;whiteSpace=wrap;html=1;fixedSize=1;fillColor=#e1d5e7;strokeColor=#9673a6;" vertex="1" parent="XMsLL7kzhM_ZJ7_MW_jl-1">
          <mxGeometry x="420" y="370" width="320" height="80" as="geometry" />
        </mxCell>
        <mxCell id="O9FHIi6v9k5KlshPvctB-0" value="Deno API with power to create cronjobs and power to schedule and perform backups, exports, rollbacks and imports" style="whiteSpace=wrap;html=1;aspect=fixed;" vertex="1" parent="XMsLL7kzhM_ZJ7_MW_jl-1">
          <mxGeometry x="440" y="450" width="280" height="280" as="geometry" />
        </mxCell>
        <mxCell id="XbJZeihiL8k5ddoW7x8Q-3" style="edgeStyle=orthogonalEdgeStyle;rounded=0;orthogonalLoop=1;jettySize=auto;html=1;exitX=0.5;exitY=1;exitDx=0;exitDy=0;entryX=0;entryY=0;entryDx=50;entryDy=0;entryPerimeter=0;" edge="1" parent="XMsLL7kzhM_ZJ7_MW_jl-1" source="O9FHIi6v9k5KlshPvctB-1" target="XbJZeihiL8k5ddoW7x8Q-0">
          <mxGeometry relative="1" as="geometry">
            <Array as="points">
              <mxPoint x="210" y="310" />
            </Array>
          </mxGeometry>
        </mxCell>
        <mxCell id="O9FHIi6v9k5KlshPvctB-1" value="Elastic Stack&lt;br&gt;ElasticSearch + Beats&lt;br&gt;&lt;br&gt;Connected to Kafka topic" style="shape=process;whiteSpace=wrap;html=1;backgroundOutline=1;" vertex="1" parent="XMsLL7kzhM_ZJ7_MW_jl-1">
          <mxGeometry x="70" y="180" width="290" height="130" as="geometry" />
        </mxCell>
        <mxCell id="XbJZeihiL8k5ddoW7x8Q-0" value="PVC" style="shape=cube;whiteSpace=wrap;html=1;boundedLbl=1;backgroundOutline=1;darkOpacity=0.05;darkOpacity2=0.1;" vertex="1" parent="XMsLL7kzhM_ZJ7_MW_jl-1">
          <mxGeometry x="160" y="440" width="120" height="80" as="geometry" />
        </mxCell>
      </root>
    </mxGraphModel>
  </diagram>
  <diagram id="6cvpm5cWbdcJZ_4mrwFl" name="&#39;0-0&#39;">
    <mxGraphModel dx="1422" dy="800" grid="1" gridSize="10" guides="1" tooltips="1" connect="1" arrows="1" fold="1" page="1" pageScale="1" pageWidth="827" pageHeight="1169" math="0" shadow="0">
      <root>
        <mxCell id="puBE1nMEnAZAT9TWzGf--0" />
        <mxCell id="puBE1nMEnAZAT9TWzGf--1" parent="puBE1nMEnAZAT9TWzGf--0" />
        <mxCell id="UjSEymZsDjjhf5MZZubX-0" value="" style="whiteSpace=wrap;html=1;aspect=fixed;fillColor=#e1d5e7;strokeColor=#9673a6;" vertex="1" parent="puBE1nMEnAZAT9TWzGf--1">
          <mxGeometry x="54" y="20" width="720" height="720" as="geometry" />
        </mxCell>
        <mxCell id="UjSEymZsDjjhf5MZZubX-1" value="&lt;font style=&quot;font-size: 48px&quot;&gt;&lt;b&gt;API&lt;/b&gt;&lt;/font&gt;" style="text;html=1;strokeColor=none;fillColor=none;align=center;verticalAlign=middle;whiteSpace=wrap;rounded=0;fontColor=#660066;" vertex="1" parent="puBE1nMEnAZAT9TWzGf--1">
          <mxGeometry x="340" y="50" width="120" height="60" as="geometry" />
        </mxCell>
        <mxCell id="UjSEymZsDjjhf5MZZubX-4" value="Actor" style="shape=umlActor;verticalLabelPosition=bottom;verticalAlign=top;html=1;outlineConnect=0;fontColor=#660066;" vertex="1" parent="puBE1nMEnAZAT9TWzGf--1">
          <mxGeometry x="110" y="340" width="30" height="60" as="geometry" />
        </mxCell>
        <mxCell id="UjSEymZsDjjhf5MZZubX-6" value="Actor" style="shape=umlActor;verticalLabelPosition=bottom;verticalAlign=top;html=1;outlineConnect=0;fontColor=#660066;" vertex="1" parent="puBE1nMEnAZAT9TWzGf--1">
          <mxGeometry x="140" y="370" width="30" height="60" as="geometry" />
        </mxCell>
        <mxCell id="UjSEymZsDjjhf5MZZubX-7" value="Actor" style="shape=umlActor;verticalLabelPosition=bottom;verticalAlign=top;html=1;outlineConnect=0;fontColor=#660066;" vertex="1" parent="puBE1nMEnAZAT9TWzGf--1">
          <mxGeometry x="80" y="370" width="30" height="60" as="geometry" />
        </mxCell>
        <mxCell id="UjSEymZsDjjhf5MZZubX-8" value="" style="shape=flexArrow;endArrow=classic;html=1;fontColor=#660066;" edge="1" parent="puBE1nMEnAZAT9TWzGf--1">
          <mxGeometry width="50" height="50" relative="1" as="geometry">
            <mxPoint x="180" y="370" as="sourcePoint" />
            <mxPoint x="230" y="320" as="targetPoint" />
          </mxGeometry>
        </mxCell>
        <mxCell id="UjSEymZsDjjhf5MZZubX-10" value="" style="shape=flexArrow;endArrow=classic;html=1;fontColor=#660066;" edge="1" parent="puBE1nMEnAZAT9TWzGf--1">
          <mxGeometry width="50" height="50" relative="1" as="geometry">
            <mxPoint x="190" y="400" as="sourcePoint" />
            <mxPoint x="240" y="350" as="targetPoint" />
          </mxGeometry>
        </mxCell>
        <mxCell id="UjSEymZsDjjhf5MZZubX-11" value="" style="shape=flexArrow;endArrow=classic;html=1;fontColor=#660066;" edge="1" parent="puBE1nMEnAZAT9TWzGf--1">
          <mxGeometry width="50" height="50" relative="1" as="geometry">
            <mxPoint x="200" y="430" as="sourcePoint" />
            <mxPoint x="250" y="380" as="targetPoint" />
          </mxGeometry>
        </mxCell>
        <mxCell id="UjSEymZsDjjhf5MZZubX-12" value="Methods that do stuff&amp;nbsp; &amp;nbsp; &amp;nbsp; &amp;nbsp; &amp;nbsp; &amp;nbsp; &amp;nbsp;" style="triangle;whiteSpace=wrap;html=1;fontColor=#660066;rotation=-30;" vertex="1" parent="puBE1nMEnAZAT9TWzGf--1">
          <mxGeometry x="250" y="200" width="210" height="200" as="geometry" />
        </mxCell>
        <mxCell id="UjSEymZsDjjhf5MZZubX-13" value="" style="verticalLabelPosition=bottom;verticalAlign=top;html=1;shape=mxgraph.basic.sun;fontColor=#660066;" vertex="1" parent="puBE1nMEnAZAT9TWzGf--1">
          <mxGeometry x="550" y="200" width="100" height="100" as="geometry" />
        </mxCell>
        <mxCell id="UjSEymZsDjjhf5MZZubX-14" value="" style="verticalLabelPosition=bottom;verticalAlign=top;html=1;shape=mxgraph.basic.heart;fontColor=#660066;" vertex="1" parent="puBE1nMEnAZAT9TWzGf--1">
          <mxGeometry x="540" y="400" width="100" height="100" as="geometry" />
        </mxCell>
        <mxCell id="UjSEymZsDjjhf5MZZubX-15" value="" style="verticalLabelPosition=bottom;verticalAlign=top;html=1;shape=mxgraph.basic.moon;fontColor=#660066;" vertex="1" parent="puBE1nMEnAZAT9TWzGf--1">
          <mxGeometry x="130" y="140" width="75" height="100" as="geometry" />
        </mxCell>
        <mxCell id="UjSEymZsDjjhf5MZZubX-16" value="" style="verticalLabelPosition=bottom;verticalAlign=top;html=1;shape=mxgraph.basic.pyramid;dx1=0.4;dx2=0.6;dy1=0.9;dy2=0.8;fontColor=#660066;" vertex="1" parent="puBE1nMEnAZAT9TWzGf--1">
          <mxGeometry x="380" y="440" width="100" height="100" as="geometry" />
        </mxCell>
        <mxCell id="UjSEymZsDjjhf5MZZubX-17" value="" style="shape=message;whiteSpace=wrap;html=1;outlineConnect=0;fontColor=#660066;" vertex="1" parent="puBE1nMEnAZAT9TWzGf--1">
          <mxGeometry x="270" y="520" width="40" height="30" as="geometry" />
        </mxCell>
      </root>
    </mxGraphModel>
  </diagram>
  <diagram id="OtyuGlFgGX3pf3_qO91u" name="¬¬">
    <mxGraphModel dx="1422" dy="800" grid="1" gridSize="10" guides="1" tooltips="1" connect="1" arrows="1" fold="1" page="1" pageScale="1" pageWidth="827" pageHeight="1169" math="0" shadow="0">
      <root>
        <mxCell id="1H3FCKQH3FuP1hyUTmqb-0" />
        <mxCell id="1H3FCKQH3FuP1hyUTmqb-1" parent="1H3FCKQH3FuP1hyUTmqb-0" />
        <mxCell id="Lqgy4nSzvfu8NqlnTlnr-0" value="" style="whiteSpace=wrap;html=1;aspect=fixed;fillColor=#cdeb8b;strokeColor=#36393d;" vertex="1" parent="1H3FCKQH3FuP1hyUTmqb-1">
          <mxGeometry x="30" y="30" width="770" height="770" as="geometry" />
        </mxCell>
        <mxCell id="Lqgy4nSzvfu8NqlnTlnr-1" value="&lt;font style=&quot;font-size: 48px&quot;&gt;Worker&lt;/font&gt;" style="text;html=1;strokeColor=none;fillColor=none;align=center;verticalAlign=middle;whiteSpace=wrap;rounded=0;fontColor=#660066;" vertex="1" parent="1H3FCKQH3FuP1hyUTmqb-1">
          <mxGeometry x="310" y="60" width="40" height="20" as="geometry" />
        </mxCell>
        <mxCell id="Lqgy4nSzvfu8NqlnTlnr-2" value="Needs to do some tedious and difficult task, task that processes data and does certain operations on it and could scale." style="text;html=1;strokeColor=none;fillColor=none;align=center;verticalAlign=middle;whiteSpace=wrap;rounded=0;fontColor=#660066;" vertex="1" parent="1H3FCKQH3FuP1hyUTmqb-1">
          <mxGeometry x="140" y="150" width="580" height="20" as="geometry" />
        </mxCell>
        <mxCell id="uAJPsMWXiW-KhdYHwWXJ-0" value="&lt;b&gt;&lt;font style=&quot;font-size: 14px&quot;&gt;for the start we will log the time and the name of the worker&lt;/font&gt;&lt;/b&gt;" style="text;html=1;strokeColor=none;fillColor=none;align=center;verticalAlign=middle;whiteSpace=wrap;rounded=0;fontColor=#660066;" vertex="1" parent="1H3FCKQH3FuP1hyUTmqb-1">
          <mxGeometry x="160" y="460" width="520" height="20" as="geometry" />
        </mxCell>
      </root>
    </mxGraphModel>
  </diagram>
</mxfile>
